<?xml version="1.0" encoding="utf-8"?><!-- Uploaded to: SVG Repo, www.svgrepo.com, Generator: SVG Repo Mixer Tools -->
<svg fill="#000000" width="800px" height="800px" viewBox="0 0 24 24" id="zoom-in-alt" data-name="Flat Color" xmlns="http://www.w3.org/2000/svg" class="icon flat-color"><path id="secondary" d="M21,22a1,1,0,0,1-.71-.29L16,17.37A1,1,0,0,1,17.37,16l4.34,4.34a1,1,0,0,1,0,1.42A1,1,0,0,1,21,22Z" style="fill: rgb(44, 169, 188);"></path><circle id="primary" cx="11" cy="11" r="9" style="fill: rgb(0, 0, 0);"></circle><path id="secondary-2" data-name="secondary" d="M11,15a1,1,0,0,1-1-1V12H8a1,1,0,0,1,0-2h2V8a1,1,0,0,1,2,0v2h2a1,1,0,0,1,0,2H12v2A1,1,0,0,1,11,15Z" style="fill: rgb(44, 169, 188);"></path></svg>